<svg xmlns="http://www.w3.org/2000/svg" viewBox="0 0 24 24" fill="none">
  <path d="M21.9368 4.16356C23.0763 4.16356 24 3.23151 24 2.08178C24 0.932044 23.0763 0 21.9368 0C20.7973 0 19.8736 0.932044 19.8736 2.08178C19.8736 3.23151 20.7973 4.16356 21.9368 4.16356Z" fill="#99CA3C"/>
  <path d="M16.6639 3.74716C17.5755 3.74716 18.3145 3.00152 18.3145 2.08171C18.3145 1.16191 17.5755 0.41626 16.6639 0.41626C15.7523 0.41626 15.0133 1.16191 15.0133 2.08171C15.0133 3.00152 15.7523 3.74716 16.6639 3.74716Z" fill="#99CA3C"/>
  <path d="M11.3909 3.41406C12.1202 3.41406 12.7114 2.81755 12.7114 2.08172C12.7114 1.3459 12.1202 0.74939 11.3909 0.74939C10.6617 0.74939 10.0705 1.3459 10.0705 2.08172C10.0705 2.81755 10.6617 3.41406 11.3909 3.41406Z" fill="#99CA3C"/>
  <path d="M6.118 3.14768C6.70143 3.14768 7.1744 2.67046 7.1744 2.08177C7.1744 1.49309 6.70143 1.01587 6.118 1.01587C5.53456 1.01587 5.0616 1.49309 5.0616 2.08177C5.0616 2.67046 5.53456 3.14768 6.118 3.14768Z" fill="#99CA3C"/>
  <path d="M0.845122 2.93451C1.31187 2.93451 1.69024 2.55273 1.69024 2.08179C1.69024 1.61084 1.31187 1.22906 0.845122 1.22906C0.378374 1.22906 0 1.61084 0 2.08179C0 2.55273 0.378374 2.93451 0.845122 2.93451Z" fill="#99CA3C"/>
  <path d="M21.9368 10.7757C23.0763 10.7757 24 9.8437 24 8.69396C24 7.54423 23.0763 6.61218 21.9368 6.61218C20.7973 6.61218 19.8736 7.54423 19.8736 8.69396C19.8736 9.8437 20.7973 10.7757 21.9368 10.7757Z" fill="#0672A3"/>
  <path d="M16.6639 10.3593C17.5755 10.3593 18.3145 9.6137 18.3145 8.69389C18.3145 7.77409 17.5755 7.02844 16.6639 7.02844C15.7523 7.02844 15.0133 7.77409 15.0133 8.69389C15.0133 9.6137 15.7523 10.3593 16.6639 10.3593Z" fill="#0672A3"/>
  <path d="M11.3909 10.0262C12.1202 10.0262 12.7114 9.42973 12.7114 8.69391C12.7114 7.95808 12.1202 7.36157 11.3909 7.36157C10.6617 7.36157 10.0705 7.95808 10.0705 8.69391C10.0705 9.42973 10.6617 10.0262 11.3909 10.0262Z" fill="#0672A3"/>
  <path d="M6.118 9.75986C6.70143 9.75986 7.1744 9.28264 7.1744 8.69396C7.1744 8.10527 6.70143 7.62805 6.118 7.62805C5.53456 7.62805 5.0616 8.10527 5.0616 8.69396C5.0616 9.28264 5.53456 9.75986 6.118 9.75986Z" fill="#0672A3"/>
  <path d="M0.845122 9.54668C1.31187 9.54668 1.69024 9.1649 1.69024 8.69395C1.69024 8.223 1.31187 7.84123 0.845122 7.84123C0.378374 7.84123 0 8.223 0 8.69395C0 9.1649 0.378374 9.54668 0.845122 9.54668Z" fill="#0672A3"/>
  <path d="M21.9368 17.3878C23.0763 17.3878 24 16.4558 24 15.306C24 14.1563 23.0763 13.2242 21.9368 13.2242C20.7973 13.2242 19.8736 14.1563 19.8736 15.306C19.8736 16.4558 20.7973 17.3878 21.9368 17.3878Z" fill="#92278F"/>
  <path d="M16.6639 16.9715C17.5755 16.9715 18.3145 16.2259 18.3145 15.3061C18.3145 14.3863 17.5755 13.6406 16.6639 13.6406C15.7523 13.6406 15.0133 14.3863 15.0133 15.3061C15.0133 16.2259 15.7523 16.9715 16.6639 16.9715Z" fill="#92278F"/>
  <path d="M11.3909 16.6384C12.1202 16.6384 12.7114 16.0419 12.7114 15.3061C12.7114 14.5703 12.1202 13.9738 11.3909 13.9738C10.6617 13.9738 10.0705 14.5703 10.0705 15.3061C10.0705 16.0419 10.6617 16.6384 11.3909 16.6384Z" fill="#92278F"/>
  <path d="M6.118 16.3719C6.70143 16.3719 7.1744 15.8947 7.1744 15.306C7.1744 14.7173 6.70143 14.2401 6.118 14.2401C5.53456 14.2401 5.0616 14.7173 5.0616 15.306C5.0616 15.8947 5.53456 16.3719 6.118 16.3719Z" fill="#92278F"/>
  <path d="M0.845122 16.1588C1.31187 16.1588 1.69024 15.777 1.69024 15.3061C1.69024 14.8351 1.31187 14.4533 0.845122 14.4533C0.378374 14.4533 0 14.8351 0 15.3061C0 15.777 0.378374 16.1588 0.845122 16.1588Z" fill="#92278F"/>
  <path d="M21.9368 24C23.0763 24 24 23.0679 24 21.9182C24 20.7685 23.0763 19.8364 21.9368 19.8364C20.7973 19.8364 19.8736 20.7685 19.8736 21.9182C19.8736 23.0679 20.7973 24 21.9368 24Z" fill="#3D2E8A"/>
  <path d="M16.6639 23.5837C17.5755 23.5837 18.3145 22.8381 18.3145 21.9183C18.3145 20.9985 17.5755 20.2528 16.6639 20.2528C15.7523 20.2528 15.0133 20.9985 15.0133 21.9183C15.0133 22.8381 15.7523 23.5837 16.6639 23.5837Z" fill="#3D2E8A"/>
  <path d="M11.3909 23.2506C12.1202 23.2506 12.7114 22.6541 12.7114 21.9183C12.7114 21.1824 12.1202 20.5859 11.3909 20.5859C10.6617 20.5859 10.0705 21.1824 10.0705 21.9183C10.0705 22.6541 10.6617 23.2506 11.3909 23.2506Z" fill="#3D2E8A"/>
  <path d="M6.118 22.9841C6.70143 22.9841 7.1744 22.5069 7.1744 21.9182C7.1744 21.3295 6.70143 20.8523 6.118 20.8523C5.53456 20.8523 5.0616 21.3295 5.0616 21.9182C5.0616 22.5069 5.53456 22.9841 6.118 22.9841Z" fill="#3D2E8A"/>
  <path d="M0.845122 22.7709C1.31187 22.7709 1.69024 22.3892 1.69024 21.9182C1.69024 21.4473 1.31187 21.0655 0.845122 21.0655C0.378374 21.0655 0 21.4473 0 21.9182C0 22.3892 0.378374 22.7709 0.845122 22.7709Z" fill="#3D2E8A"/>
</svg>
