<svg preserveAspectRatio="none" width="100%" height="100%" overflow="visible" style="display: block;" viewBox="0 0 12 17.1429" fill="none" xmlns="http://www.w3.org/2000/svg">
<path id="Vector" d="M3.42857 16.2857C3.42857 16.7143 3.77143 17.1429 4.28571 17.1429H7.71429C8.22857 17.1429 8.57143 16.7143 8.57143 16.2857V15.4286H3.42857V16.2857ZM6 0C2.65714 0 0 2.65714 0 6C0 8.05714 1.02857 9.85714 2.57143 10.8857V12.8571C2.57143 13.2857 2.91429 13.7143 3.42857 13.7143H8.57143C9.08571 13.7143 9.42857 13.2857 9.42857 12.8571V10.8857C10.9714 9.77143 12 7.97143 12 6C12 2.65714 9.34286 0 6 0Z" fill="var(--fill-0, #523EB9)"/>
</svg>
