<svg preserveAspectRatio="none" width="100%" height="100%" overflow="visible" style="display: block;" viewBox="0 0 16 11.6364" fill="none" xmlns="http://www.w3.org/2000/svg">
<path id="Vector" d="M13.0909 2.90909L10.1818 5.81818H12.3636C12.3636 8.22545 10.4073 10.1818 8 10.1818C7.26545 10.1818 6.56727 10 5.96364 9.67273L4.90182 10.7345C5.79636 11.3018 6.85818 11.6364 8 11.6364C11.2145 11.6364 13.8182 9.03273 13.8182 5.81818H16L13.0909 2.90909ZM3.63636 5.81818C3.63636 3.41091 5.59273 1.45455 8 1.45455C8.73455 1.45455 9.43273 1.63636 10.0364 1.96364L11.0982 0.901818C10.2036 0.334545 9.14182 0 8 0C4.78545 0 2.18182 2.60364 2.18182 5.81818H0L2.90909 8.72727L5.81818 5.81818H3.63636Z" fill="var(--fill-0, #23262C)"/>
</svg>
