<svg preserveAspectRatio="none" width="100%" height="100%" overflow="visible" style="display: block;" viewBox="0 0 20 18" fill="none" xmlns="http://www.w3.org/2000/svg">
<g id="Group">
<path id="Vector" d="M7.99998 8C10.2091 8 12 6.20914 12 4C12 1.79086 10.2091 0 7.99998 0C5.79084 0 3.99998 1.79086 3.99998 4C3.99998 6.20914 5.79084 8 7.99998 8Z" fill="var(--fill-0, #23262C)"/>
<path id="Vector_2" d="M8.35 10.01C5.62 9.91001 0 11.27 0 14V16H9.54C7.07 13.24 8.31 10.11 8.35 10.01Z" fill="var(--fill-0, #23262C)"/>
<path id="Vector_3" d="M17.43 14.02C17.79 13.43 18 12.74 18 12C18 9.79001 16.21 8.00001 14 8.00001C11.79 8.00001 9.99998 9.79001 9.99998 12C9.99998 14.21 11.79 16 14 16C14.74 16 15.43 15.78 16.02 15.43L18.59 18L20 16.59L17.43 14.02ZM14 14C12.9 14 12 13.1 12 12C12 10.9 12.9 10 14 10C15.1 10 16 10.9 16 12C16 13.1 15.1 14 14 14Z" fill="var(--fill-0, #23262C)"/>
</g>
</svg>
